
<svg width="290" height="296" viewBox="0 0 290 296" fill="none" xmlns="http://www.w3.org/2000/svg">
<path d="M102.617 222.148C105.034 221.275 107.51 220.581 110.026 220.076L110.331 221.215C110.365 221.35 110.445 221.467 110.557 221.546C110.669 221.625 110.805 221.659 110.94 221.644L120.901 220.461C123.642 214.082 128.673 204.417 128.746 204.269C128.673 201.857 128.746 199.829 128.746 197.521C123.047 199.681 112.506 203.781 106.996 206.401C106.871 206.482 106.775 206.603 106.72 206.743C106.666 206.884 106.656 207.038 106.691 207.185C106.691 207.185 106.793 207.555 106.923 208.088C104.226 208.088 96.15 207.688 94.207 209.568C93.9048 209.997 93.7564 210.52 93.7865 211.048C93.6705 213.09 94.671 228.956 96.266 233.618C97.0925 236.06 98.8325 235.793 100.021 233.455C101.398 229.934 102.281 226.231 102.646 222.459C102.646 222.266 102.602 222.281 102.617 222.148ZM100.949 208.902C102.718 208.754 103.269 208.783 107.068 208.665C107.75 211.299 109.156 216.716 109.881 219.484C107.323 219.888 104.798 220.486 102.327 221.275C101.557 217.192 101.096 213.056 100.949 208.902Z" fill="#2A4787"/>
<path d="M236.076 79.3733C236.438 78.8553 235.974 78.1894 235.583 77.6713C236.692 76.5073 237.922 75.4699 239.251 74.5781C241.495 73.4369 243.546 71.9384 245.327 70.1382C246.066 69.3538 247.458 67.7406 246.936 66.7934C246.414 65.8462 245.486 65.7869 244.225 66.3345C244.771 65.749 245.218 65.0733 245.544 64.3366C245.95 63.1822 244.993 62.2498 242.92 63.1082C243.674 61.8798 243.848 60.5921 242.572 59.9705C241.542 59.4674 240.034 60.6662 239.164 61.4506C237.456 62.9741 235.852 64.6159 234.365 66.3642C233.451 64.4106 232.001 62.161 230.189 62.8714C228.376 63.5818 229.783 66.7638 230.711 68.4954L227.419 70.819C226.922 70.5447 226.36 70.4169 225.795 70.449C222.054 71.1002 204.872 84.4497 203.132 84.4497C201.798 84.4497 182.745 75.1257 166.273 72.4321C166.241 72.3312 166.182 72.2419 166.102 72.1738C166.023 72.1057 165.926 72.0619 165.823 72.0474C162.95 71.5468 160.038 71.324 157.123 71.3814C157.035 71.3875 156.949 71.4131 156.872 71.4564C156.793 71.5 156.727 71.5603 156.674 71.633H155.456C155.166 70.4342 154.093 67.6665 153.716 66.601C154.702 65.7278 156.065 65.2838 156.775 63.8778C158.08 61.273 158.022 56.7442 157.66 53.8434C159.298 52.5706 159.342 50.5281 158.965 48.4413C158.82 47.5977 158.37 45.6886 157.674 45.215C157.283 44.9486 156.456 45.215 155.746 45.4814C155.035 43.7942 155.035 44.5638 155.325 43.883C155.461 43.5692 155.539 43.2334 155.557 42.8914C156.326 43.1282 157.921 41.5594 157.37 39.4874C157.081 38.7457 156.727 38.0324 156.311 37.3562C156.514 36.853 156.949 36.2462 155.586 34.3962C154.999 33.7498 154.237 33.2964 153.397 33.0938H152.73C152.249 32.3809 151.542 31.8584 150.729 31.6138C149.501 31.2941 148.199 31.4803 147.104 32.1318C146.814 32.3538 146.582 32.6498 146.292 32.857C145.636 32.4506 144.884 32.2359 144.117 32.2359C143.35 32.2359 142.598 32.4506 141.942 32.857C141.558 33.0106 141.208 33.242 140.915 33.5369C140.621 33.8321 140.388 34.1846 140.231 34.5738C139.52 34.3235 138.766 34.2272 138.017 34.2909C137.269 34.3547 136.541 34.577 135.881 34.9438C133.376 36.3301 131.502 38.6623 130.661 41.4409C130.638 41.8599 130.638 42.28 130.661 42.699H130.501C128.326 42.3734 125.557 47.6422 127.775 51.7418C128.036 52.2302 128.37 52.6889 128.689 53.2218C129.617 54.7017 129.254 55.1458 131.328 56.9513C131.937 57.4841 132.038 57.4397 132.415 57.7653C132.792 58.0909 132.647 57.9282 132.865 58.7569C132.983 59.2451 133.196 59.7047 133.49 60.1086C133.783 60.5125 134.153 60.8529 134.576 61.1101C134.731 62.5579 135.335 63.9168 136.301 64.9878C136.607 65.3376 136.965 65.6368 137.36 65.8757C137.466 65.9371 137.586 65.9726 137.708 65.9794C138.143 68.7322 138.679 72.3138 138.911 73.8382L137.621 74.5485C135.933 75.242 134.291 76.0479 132.705 76.9609C132.581 77.0489 132.493 77.1805 132.459 77.3309C130.922 78.1597 129.472 78.9441 128.645 79.4473C117.133 86.4181 84.4348 132.372 84.1013 134.474C84.0647 134.595 84.0647 134.723 84.1013 134.844C84.5701 135.607 85.1411 136.299 85.7978 136.901C85.5956 137.278 85.3523 137.63 85.0728 137.952C82.1728 139.891 77.8231 142.777 75.4886 145.352C75.3246 145.501 75.2017 145.691 75.1321 145.903C75.0623 146.115 75.0478 146.342 75.0902 146.562C75.1327 146.781 75.2305 146.986 75.3742 147.156C75.5178 147.325 75.7021 147.453 75.9088 147.527C76.3438 147.675 76.4166 147.631 79.2441 146.047C78.4669 146.743 77.8312 147.588 77.3736 148.534C77.1851 149.348 77.9101 149.821 78.8236 149.673C79.3374 149.535 79.8267 149.316 80.2736 149.022C80.0118 149.434 79.8728 149.915 79.8728 150.406C79.8728 150.897 80.0118 151.378 80.2736 151.79C81.7236 153.655 85.5226 147.779 87.5236 146.329C88.3356 147.379 89.4373 149.836 91.1918 149.185C92.7143 148.608 91.0468 145.189 91.1918 144.197C91.7818 143.619 92.4119 143.085 93.0771 142.599C94.1954 143.445 95.4743 144.046 96.8323 144.36C99.2248 144.36 124.194 118.638 126.093 116.581C125.412 123.122 121.975 151.198 122.7 156.659C123.034 159.131 128.848 159.486 131.299 159.619C130.559 177.379 130.066 204.285 129.936 204.567C126.093 213.017 125.049 215.326 123.759 217.887C121.41 222.475 111.521 239.406 110.404 243.254C110.245 243.861 110.23 244.097 110.854 245.222C108.985 247.228 107.251 249.359 105.663 251.601C104.866 253.081 108.287 266.875 110.709 271.759C111.26 272.854 112.159 274.541 113.362 274.498C116.987 274.363 116.973 261.073 116.871 257.358C116.871 257.244 116.83 257.134 116.755 257.047C117.413 256.046 118.129 255.088 118.901 254.176C119.362 254.501 119.847 254.787 120.351 255.035C120.844 255.257 121.395 254.872 121.801 254.531C126.63 250.654 152.672 217.531 158.254 201.903C160.792 194.769 164.17 184.912 165.127 177.927C165.712 173.51 165.767 169.037 165.287 164.607C165.287 164.544 165.311 164.483 165.355 164.439C165.398 164.395 165.457 164.37 165.519 164.37C165.58 164.37 165.64 164.395 165.683 164.439C165.727 164.483 165.751 164.544 165.751 164.607C166.477 169.061 166.618 173.596 166.171 178.089C165.098 187.783 157.602 207.985 153.6 215.415C157.051 214.764 164.069 213.343 167.462 212.307C178.772 208.799 189.212 198.336 190.125 186.585C190.421 181.048 190.421 175.501 190.125 169.964C190.027 162.321 189.055 154.716 187.225 147.305C190.299 145.603 193.112 143.605 194.026 141.77C195.983 137.848 190.807 115.278 189.676 108.944C195.867 109.639 206.409 110.897 211.324 106.975C216.95 102.358 229.101 89.3633 236.076 79.3733ZM116.088 256.544C113.478 254.931 109.824 251.098 109.273 248.093C109.868 247.324 110.491 246.613 111.071 245.814C113.036 248.875 115.487 251.581 118.321 253.821C117.525 254.683 116.779 255.592 116.088 256.544ZM231.363 68.9098C231.438 68.861 231.493 68.7846 231.513 68.6966C231.535 68.6084 231.523 68.5153 231.479 68.4361C230.972 67.4741 229.449 64.085 230.508 63.7002C231.117 63.4634 231.653 63.8482 232.103 64.3662C232.789 65.255 233.323 66.2557 233.683 67.3262C233.71 67.4131 233.759 67.4911 233.827 67.5516C233.894 67.6122 233.976 67.6528 234.063 67.6698C234.151 67.6865 234.242 67.6784 234.326 67.6466C234.41 67.6149 234.483 67.5603 234.539 67.4889C235.989 65.8461 239.382 62.1018 241.296 61.0954C242.746 60.3258 243.094 61.7465 239.541 65.0617C238.726 65.6968 237.942 66.3736 237.192 67.0894C237.151 67.1475 237.128 67.2174 237.128 67.2893C237.128 67.3609 237.151 67.4308 237.192 67.4889C237.192 67.8737 237.497 68.303 238.019 67.9034C239.279 66.774 240.612 65.731 242.006 64.7806C242.718 64.2644 243.546 63.9386 244.413 63.8334C243.978 65.195 239.933 68.895 239.585 69.3093C239.475 69.4105 239.407 69.5515 239.398 69.7025C239.389 69.8535 239.437 70.0023 239.534 70.1166C239.632 70.231 239.769 70.302 239.916 70.3144C240.065 70.3268 240.211 70.2794 240.324 70.1826C241.934 69.117 244.747 66.6306 245.718 67.0005C246.69 67.3706 243.804 70.1234 243.079 70.7746C238.918 74.4598 239.991 72.0917 235.177 77.0941C233.082 74.7512 230.676 72.7187 228.028 71.0558L231.363 68.9098ZM168.361 139.698C168.114 137.656 167.81 135.451 167.433 133.157L168.056 132.313C170.956 128.509 171.826 122.456 171.551 117.705C173.102 124.647 174.335 131.469 175.277 138.248L168.361 139.698ZM146.799 89.0229C142.986 86.063 136.852 80.9569 133.285 77.4641L139.085 74.5042C144.412 79.5819 148.971 85.4373 152.614 91.8794C158.185 102.326 162.318 113.506 164.895 125.105L144.218 95.2537L146.915 89.541C146.952 89.453 146.959 89.3558 146.938 89.2632C146.918 89.1701 146.869 89.0865 146.799 89.0229ZM156.601 72.2398C156.688 72.4026 157.689 74.5781 159.211 78.3817C159.211 78.5445 158.936 82.2445 158.805 83.547C156.954 82.7983 155.209 81.803 153.614 80.5869C153.933 79.2993 155.369 73.4534 155.47 72.1362L156.601 72.2398ZM151.454 88.1349C151.555 87.8685 151.657 87.5133 151.773 87.0989L152.744 87.617C153.295 87.987 153.078 86.8621 153.571 90.1181C153.571 90.6657 153.716 91.2725 153.745 91.9385C153.078 90.7101 152.251 89.3929 151.468 88.1349H151.454ZM150.642 86.8917C147.903 82.9259 144.784 79.2474 141.333 75.9101L152.251 80.7497C151.831 81.7709 151.222 84.8937 150.656 86.8917H150.642ZM161.792 95.5645C160.342 91.5241 159.226 87.0102 158.675 85.8262C158.707 85.457 158.707 85.0853 158.675 84.7161C158.885 84.7958 159.104 84.8456 159.327 84.8642C159.468 84.8658 159.603 84.8157 159.709 84.7231C159.817 84.6308 159.887 84.5022 159.907 84.3609C160.023 83.8725 160.212 81.4009 160.241 80.8533C164.459 91.7233 167.98 102.862 170.782 114.198C162.59 96.4081 163.851 101.559 161.807 95.5645H161.792ZM173.784 123.818C170.478 107.641 164.663 87.469 158.051 72.521C160.48 72.5223 162.904 72.7203 165.301 73.1129C166.534 84.361 165.504 83.9761 166.331 84.4201C167.157 84.8641 172.131 86.9065 172.87 87.2173C172.798 88.3569 173.842 120.947 173.798 123.818H173.784ZM157.094 46.1621C157.851 47.8458 158.117 49.7155 157.863 51.5494C157.744 52.0162 157.503 52.4403 157.162 52.7745C156.821 53.109 156.397 53.3404 155.936 53.4432C155.475 53.546 154.994 53.5161 154.548 53.3568C154.103 53.1975 153.71 52.915 153.411 52.541C152.719 51.0534 152.199 49.4889 151.86 47.879C152.251 47.361 156.427 46.3249 157.094 46.1621ZM137.142 60.9621C136.613 60.7159 136.071 60.4988 135.518 60.311C135.147 60.1554 134.818 59.9154 134.552 59.6092C134.286 59.3029 134.093 58.9389 133.986 58.5444C133.88 58.1502 133.863 57.7363 133.938 57.3343C134.013 56.9325 134.176 56.5534 134.416 56.2262C135.33 55.4418 136.156 55.4862 136.91 56.6554C137.389 57.5582 137.374 57.6322 137.592 57.721C137.655 57.7489 137.722 57.7632 137.79 57.7624C137.858 57.7616 137.925 57.746 137.987 57.7166C138.049 57.6873 138.104 57.6445 138.148 57.5918C138.192 57.539 138.225 57.4772 138.244 57.4101C138.459 56.4839 138.493 55.5233 138.346 54.5834C138.172 53.5622 138.143 49.0333 138.172 48.8854C138.596 49.1133 139.071 49.2206 139.549 49.1961C142.174 49.0926 142.696 47.7161 143.74 46.5913C144.943 46.7097 145.19 47.3017 146.553 46.5913C147.191 46.2208 147.777 45.7628 148.293 45.2298C148.71 45.4039 149.112 45.6119 149.496 45.8513C150.365 46.2779 151.345 46.4089 152.292 46.2251C153.24 46.0413 154.105 45.5524 154.76 44.8302C154.919 45.141 155.064 45.4518 155.195 45.7774C153.862 46.1996 152.608 46.8446 151.483 47.6866C151.236 47.9974 151.599 49.6845 151.686 50.0842C150.471 50.2402 149.296 50.6266 148.22 51.2238C148.003 50.4541 147.524 49.0185 146.77 48.6189C146.543 48.5482 146.302 48.5482 146.074 48.6189C144.769 48.8261 140.086 50.2617 139.52 51.0462C139.027 51.5938 140.434 55.8265 140.869 56.5222C142.536 59.1565 147.423 58.3869 148.336 55.3085C148.562 54.2755 148.562 53.204 148.336 52.171C148.757 52.171 150.018 51.7122 150.163 51.6678C151.164 53.9618 151.454 54.095 152.614 56.5666C152.454 56.6998 152.193 56.9218 151.976 57.0698C150.946 57.7654 150.729 57.6469 150.787 57.9429C150.804 58.0016 150.841 58.0522 150.892 58.0848C150.943 58.1176 151.003 58.1302 151.062 58.1205C151.671 58.0317 152.266 57.8628 152.831 57.6174C153.17 57.4885 153.449 57.235 153.614 56.9069C154.02 55.9745 151.773 52.467 150.888 51.4162C151.062 51.4162 151.468 51.1202 151.773 50.9574C152.179 52.615 152.454 53.9173 154.02 54.5686C154.473 54.7429 154.956 54.8223 155.439 54.8021C155.922 54.7817 156.396 54.6619 156.833 54.4502C157.065 57.055 157.022 61.2877 155.804 63.5965C155.18 64.7953 153.643 65.2542 152.657 66.2458C152.367 66.527 152.556 66.9266 152.657 67.3558C154.267 71.929 154.296 71.9142 154.209 72.5061C153.782 74.9632 153.187 77.3866 152.425 79.7581C152.063 79.5953 147.988 77.3902 140.013 74.2229C139.767 72.5506 138.447 63.6262 138.027 61.9834C138.056 61.4062 137.983 61.273 137.142 60.8882V60.9621ZM147.292 54.9237C146.828 56.5369 144.639 57.2326 143.073 56.7886C141.507 56.3446 141.405 55.5306 140.666 53.6066C140.319 52.8717 140.08 52.0886 139.955 51.283C140.434 50.7502 145.668 49.6549 146.321 49.5513C147.236 51.1495 147.58 53.0221 147.292 54.8497V54.9237ZM90.5541 143.783C90.0031 144.331 90.7423 146.121 90.8583 147.675C90.8583 147.809 90.8583 148.386 90.7713 148.43C89.9738 148.697 89.2343 147.468 88.7848 146.728C88.3353 145.988 87.8858 144.982 87.1753 145.248C85.7253 145.944 82.3613 150.502 81.0418 150.976C80.3748 149.673 84.1886 145.959 84.3191 145.751C84.375 145.656 84.4042 145.547 84.4037 145.437C84.4032 145.326 84.3729 145.216 84.3162 145.122C84.2592 145.027 84.178 144.951 84.0815 144.899C83.9848 144.849 83.8764 144.826 83.7681 144.834C83.5071 144.834 83.3328 145.071 82.9268 145.441C81.6919 146.67 80.2786 147.699 78.7363 148.489C80.1346 146.852 81.631 145.305 83.2168 143.857C83.2954 143.774 83.3505 143.672 83.3766 143.561C83.3766 143.561 83.0721 142.777 82.4776 143.087C81.6366 143.561 77.5473 145.973 76.2571 146.595C76.0831 146.477 76.1846 146.299 76.2571 146.121C78.3013 143.561 82.7966 140.453 85.5513 138.485C85.8748 138.144 86.144 137.756 86.3488 137.33C88.257 139.142 90.2923 140.809 92.4388 142.318C91.7776 142.761 91.1478 143.25 90.5541 143.783ZM124.295 157.236C123.976 157.029 123.744 156.837 123.701 156.57C122.903 150.532 127.34 116.314 127.268 114.967C127.268 114.888 127.252 114.81 127.222 114.737C127.193 114.665 127.148 114.599 127.093 114.544C127.037 114.488 126.972 114.445 126.899 114.416C126.828 114.387 126.751 114.373 126.673 114.375C125.934 114.375 127.239 114.375 108.766 132.431C107.548 133.601 98.2388 142.688 96.6873 143.295C94.5558 143.132 86.5373 136.605 85.2323 134.548C87.7553 129.338 118.35 86.4774 128.935 79.921C129.747 79.4178 131.139 78.6333 132.662 77.8045C133.189 78.3115 133.755 78.7717 134.358 79.1809C137.722 82.4369 142.406 86.4921 145.958 89.541L143.189 95.1502C143.147 95.2244 143.125 95.3086 143.125 95.3945C143.125 95.48 143.147 95.5643 143.189 95.6385C165.678 128.569 165.345 128.199 165.49 128.199C166.931 135.808 167.828 143.514 168.172 151.257C168.172 153.344 168.172 153.166 168.259 153.018C168.346 152.87 168.259 153.122 168.259 153.122C164.75 157.029 130.023 160.67 124.295 157.236ZM204.451 108.204C197.883 109.136 190.459 107.745 189.023 107.686C188.226 103.74 186.636 100.006 184.354 96.7189C184.319 96.6711 184.269 96.6382 184.211 96.6275C184.154 96.6164 184.095 96.628 184.045 96.6598C183.995 96.6915 183.959 96.7413 183.944 96.7989C183.929 96.8565 183.935 96.9178 183.963 96.9705C184.804 98.7169 187.617 106.25 188.313 108.085C188.095 108.796 194.867 137.375 192.953 141.223C191.242 144.701 181.28 149.081 177.684 150.339C176.974 142.1 175.811 133.908 174.204 125.801C174.697 121.539 174.059 96.201 173.871 86.8326C173.865 86.7238 173.83 86.6186 173.768 86.5298C173.707 86.4405 173.622 86.3713 173.523 86.3293L167.012 83.5321C166.983 80.0151 166.765 76.5022 166.36 73.0093C182.614 75.8806 201.551 85.3673 203.132 85.3821C205.423 85.3821 222.446 72.0621 225.969 71.5294C227.535 71.2777 234.263 77.2717 235.046 78.9293C228.173 88.7269 216.095 101.603 210.498 106.058C208.695 107.288 206.613 108.027 204.451 108.204Z" fill="#2A4787"/>
<path d="M145.796 51.9623C145.778 51.8652 145.742 51.7726 145.689 51.69C145.636 51.6071 145.567 51.5358 145.487 51.4801C145.406 51.4247 145.317 51.3857 145.221 51.3655C145.127 51.3453 145.029 51.3445 144.933 51.3631C144.838 51.3814 144.748 51.4188 144.667 51.4731C144.585 51.5275 144.516 51.5972 144.461 51.679C144.407 51.7608 144.368 51.8528 144.349 51.9497C144.329 52.0466 144.328 52.1464 144.346 52.2435C144.636 53.7235 144.694 54.0639 145.332 54.0639C145.453 54.0642 145.571 54.0341 145.678 53.9759C145.784 53.9175 145.875 53.8333 145.94 53.7303C146.006 53.6275 146.047 53.5093 146.057 53.3866C146.067 53.2639 146.048 53.1407 145.999 53.0279C145.956 52.7911 145.825 52.0955 145.796 51.9623ZM150.233 61.7599C151.176 62.0411 152.075 61.5823 152.046 61.3455C152.017 61.1087 152.046 61.2271 150.77 60.7387C149.914 60.4131 148.972 59.2587 148.638 59.4363C148.305 59.6139 148.812 60.5611 148.928 60.7387C149.239 61.2191 149.698 61.5788 150.233 61.7599ZM176.754 47.6999C174.854 55.8251 173.462 62.7219 173.23 64.0983C173.076 64.6971 173.047 65.3224 173.143 65.9335C173.912 67.6059 183.844 70.9063 185.106 70.2551C186.367 69.6039 189.644 62.0707 193.458 54.3007C195.794 54.3769 198.132 54.2033 200.432 53.7827C202.855 53.329 205.213 52.5683 207.45 51.5183C212.351 49.2095 217.716 39.3231 218.441 34.3503C218.985 28.9513 217.865 23.5138 215.237 18.7956C203.071 -2.73848 167.387 8.84992 170.287 32.7667C171.115 38.2392 173.346 43.3912 176.754 47.6999ZM185.599 65.3267C185.599 65.5635 185.338 65.5339 184.149 65.3267C181.717 65.0149 179.361 64.2471 177.203 63.0623C176.188 62.4999 175.913 62.3815 176.014 62.1299C176.116 61.8783 176.333 61.9671 177.899 62.4111C178.044 62.4111 182.539 63.8911 183.83 64.3499C185.497 65.1195 185.599 65.1195 185.599 65.3267ZM185.338 41.2471C186.886 41.3289 188.429 41.0031 189.818 40.2999C191.109 40.9382 192.506 41.3249 193.936 41.4395C191.5 46.0719 186.556 55.5143 184.961 60.5463L178.813 58.8147C180.263 55.1739 183.467 46.6491 185.309 41.2471H185.338ZM184.83 40.0187C183.748 39.8519 182.748 39.3272 181.987 38.5253C181.225 37.7231 180.741 36.6882 180.611 35.5787C180.205 32.6187 182.061 29.3035 184.859 30.0879C186.614 30.5763 186.831 31.9971 186.527 33.7879C186.266 35.0903 185.323 38.3611 184.801 39.9595L184.83 40.0187ZM188.774 36.4667C188.929 35.4983 189.286 34.5747 189.818 33.7583C190.072 33.3132 190.443 32.9497 190.889 32.7091C191.335 32.4683 191.838 32.3601 192.341 32.3967C193.414 32.7223 193.878 34.7943 192.994 36.0967C192.143 37.2482 191.086 38.2228 189.876 38.9679C189.46 38.7187 189.128 38.3455 188.926 37.8983C188.725 37.4513 188.661 36.9516 188.745 36.4667H188.774ZM175.449 17.6559C181.945 9.67872 194.168 6.51152 202.999 9.79712C207.796 11.4779 211.83 14.8811 214.352 19.3728C216.852 23.8625 217.922 29.0347 217.412 34.1727C216.745 38.7755 211.612 48.3363 207.102 50.4527C202.98 52.3724 198.481 53.3037 193.951 53.1759C193.458 53.1759 192.936 53.1759 192.747 53.5311C191.892 55.3071 190.326 58.7407 188.789 61.9671C187.727 61.444 186.627 61.0084 185.497 60.6647C187.179 55.7511 192.486 46.1015 195.009 41.4247C197.195 41.6158 199.393 41.2286 201.389 40.2999C201.928 40.0101 202.375 39.5693 202.679 39.029C202.981 38.4889 203.127 37.8719 203.098 37.2503C203.069 36.629 202.866 36.0289 202.516 35.5203C202.164 35.012 201.678 34.6162 201.114 34.3799C198.866 33.2551 196.851 35.9487 195.676 38.2131C195.357 38.8051 194.995 39.5007 194.589 40.2851C193.416 40.2066 192.259 39.9625 191.152 39.5599C192.254 38.7688 193.233 37.8108 194.052 36.7183C194.512 36.0106 194.744 35.1751 194.718 34.3269C194.692 33.4785 194.409 32.6594 193.907 31.9823C193.514 31.5155 192.966 31.2111 192.368 31.1266C191.77 31.0421 191.162 31.1834 190.659 31.5235C189.643 32.1605 188.83 33.0829 188.315 34.1803C187.802 35.2776 187.608 36.5033 187.759 37.7099C187.916 38.391 188.277 39.0061 188.789 39.4711C187.838 39.8731 186.817 40.0747 185.787 40.0631C186.367 38.3167 187.31 35.1643 187.556 33.8767C187.711 33.1426 187.745 32.3876 187.658 31.6419C187.546 31.002 187.254 30.4087 186.819 29.9335C186.386 29.458 185.825 29.1213 185.207 28.9631C181.684 27.9419 179.088 31.9231 179.596 35.6379C179.738 36.9691 180.299 38.2177 181.192 39.1988C182.085 40.1799 183.264 40.8411 184.555 41.0843C182.699 46.4123 179.799 55.0111 178.349 58.6815L175.159 57.8379C177.203 47.3595 177.45 47.6111 177.16 47.4779C173.865 43.1905 171.757 38.0797 171.055 32.6779C170.713 29.9994 170.929 27.2775 171.685 24.6895C172.441 22.1012 173.725 19.7048 175.449 17.6559ZM195.575 40.3739C196.59 38.4943 198.62 34.3799 200.592 35.3863C200.986 35.5486 201.33 35.8177 201.585 36.1645C201.841 36.5114 201.998 36.9228 202.042 37.3547C202.013 39.9595 198.04 40.4183 195.517 40.3739H195.575ZM251.081 46.9007C252.828 45.8518 254.892 45.4936 256.881 45.8943C259.066 45.9342 261.152 46.8256 262.714 48.3861C264.276 49.9466 265.191 52.0573 265.275 54.2859C263.962 53.508 262.426 53.2152 260.926 53.4571C257.287 53.7827 252.531 55.7955 253.169 59.3771C253.691 62.3371 257.519 61.9375 260.419 61.1383C263.319 60.3391 265.623 58.8887 266.219 56.0323C269.741 58.6519 270.569 63.2399 270.714 67.7243C270.714 67.787 270.738 67.8473 270.782 67.8917C270.825 67.9361 270.885 67.9611 270.946 67.9611C271.007 67.9611 271.067 67.9361 271.109 67.8917C271.154 67.8473 271.178 67.787 271.178 67.7243C271.278 62.7071 270.395 57.7935 266.377 54.9371C266.419 53.6522 266.203 52.3722 265.747 51.1742C265.291 49.9764 264.598 48.8858 263.717 47.9682C262.834 47.0509 261.778 46.326 260.613 45.837C259.449 45.3483 258.198 45.1059 256.939 45.1247C254.926 44.8247 252.874 45.2542 251.139 46.3383C250.602 46.6047 250.849 47.0043 251.081 46.9007ZM264.305 57.5123C262.666 59.7027 258.026 60.8423 255.88 60.4723C255.083 60.3391 254.43 59.9987 254.256 59.1551C253.734 56.1951 258.737 54.5819 261.724 54.4783C262.939 54.3831 264.152 54.7006 265.175 55.3811C265.064 56.155 264.766 56.888 264.305 57.5123ZM244.44 29.5995C245.991 27.6459 244.947 24.242 240.612 24.2272C238.93 24.2272 238.118 25.9736 238.234 27.6459C238.495 31.6271 242.888 31.5087 244.44 29.5995ZM239.249 27.5719C239.249 26.5951 239.698 25.3223 240.699 25.3372C243.033 25.3372 244.106 26.4471 244.106 27.6755C244.048 30.4727 239.06 31.9231 239.249 27.5719ZM238.654 195.36C225.909 190.165 219.993 215.31 209.582 236.918C209.515 237.826 209.545 238.74 209.669 239.641C209.669 241.906 209.915 256.898 211.206 258.6C211.554 259.281 213.018 258.6 213.7 258.171C219.488 254.514 224.942 250.333 229.998 245.68C230.041 245.629 230.073 245.571 230.093 245.507C230.113 245.443 230.12 245.376 230.114 245.31C232.811 241.388 242.917 220.964 245.368 210.722C247.079 203.47 245.382 198.068 238.654 195.36ZM243.207 214.156C236.384 213.263 229.786 211.064 223.763 207.673C227.156 201.117 231.346 193.643 238.263 196.455C245.962 199.578 245.803 206.045 243.207 214.111V214.156ZM219.079 252.636C218.634 252.255 218.148 251.926 217.629 251.659C215.669 250.642 213.406 250.419 211.293 251.037C211.148 249.276 210.321 237.821 210.321 237.717C221.182 241.772 217.832 240.011 228.591 245.472C227.46 246.568 223.212 249.602 219.079 252.606V252.636ZM226.561 209.804C227.975 210.593 229.428 211.309 230.911 211.95C227.587 217.278 224.651 222.849 222.124 228.615C219.688 233.81 219.775 233.78 217.296 239.449C215.846 238.975 214.396 238.531 212.946 238.087C214.512 234.905 225.648 211.64 226.561 209.775V209.804ZM217.861 239.597C222.574 230.968 227.373 220.238 231.491 212.143C232.941 212.764 234.391 213.268 235.841 213.712C235.073 215.192 232.825 219.128 232.231 220.268C231.636 221.408 225.677 233.396 225.256 234.313C224.589 235.793 222.762 239.922 222.197 241.24C220.718 240.574 219.297 240.07 217.803 239.567L217.861 239.597ZM222.719 241.432C223.603 239.789 227.243 232.892 227.692 232.004C228.374 230.628 235.972 214.777 236.392 213.86C237.726 214.244 239.133 214.57 240.032 214.748C237.378 222.148 229.737 236.4 226.982 243.43C224.473 242.231 223.908 241.935 222.661 241.402L222.719 241.432ZM223.603 208.102L226.199 209.582C220.968 218.674 216.412 228.153 212.569 237.939L210.394 237.258C218.818 218.936 219.21 216.538 223.545 208.073L223.603 208.102ZM229.577 244.718L227.388 243.652C229.751 238.916 237.146 226.765 240.525 214.851C241.337 214.999 242.134 215.132 242.903 215.236C239.176 225.384 234.703 235.23 229.519 244.688L229.577 244.718ZM184.149 254.323C184.726 253.834 185.14 253.173 185.329 252.432C185.519 251.691 185.477 250.908 185.207 250.194C185.084 249.162 184.621 248.204 183.894 247.478C183.167 246.751 182.218 246.299 181.205 246.196C180.193 246.093 179.175 246.344 178.322 246.909C177.468 247.474 176.828 248.32 176.507 249.306C174.651 248.077 172.636 246.775 170.707 245.532C172.157 243.563 176.42 244.436 176.855 246.05C176.865 246.113 176.899 246.169 176.948 246.206C176.999 246.243 177.062 246.259 177.123 246.249C177.185 246.24 177.239 246.205 177.277 246.154C177.313 246.103 177.329 246.039 177.319 245.976C177.102 243.4 171.853 241.891 169.736 244.925C167.865 243.756 165.545 242.335 163.602 241.254C165.27 239.774 168.996 240.603 169.402 242.142C169.422 242.195 169.458 242.239 169.506 242.267C169.553 242.294 169.61 242.304 169.663 242.293C169.718 242.282 169.766 242.252 169.801 242.208C169.835 242.165 169.853 242.109 169.852 242.054C169.663 239.656 164.806 238.043 162.602 240.677C161.679 240.149 160.707 239.713 159.702 239.375C159.518 239.297 159.316 239.275 159.121 239.312C158.925 239.349 158.744 239.443 158.6 239.582C154.931 244.244 142.563 256.35 136.85 257.756C136.706 257.779 136.571 257.839 136.457 257.932C136.344 258.024 136.257 258.145 136.203 258.283C136.15 258.421 136.133 258.572 136.155 258.717C136.178 258.864 136.237 259.002 136.328 259.118C137.582 260.418 139.019 261.52 140.591 262.389C139.141 263.869 138.01 265.201 137.169 266.163C136.734 266.636 136.502 275.694 136.879 277.693C136.934 277.887 137.059 278.057 137.227 278.167C139.054 279.44 162.587 289.829 164.994 288.438C166.604 287.504 185.816 267.095 186.121 266.474C186.585 265.497 186.425 258.985 186.396 256.38C186.28 255.596 184.845 254.752 184.149 254.323ZM137.749 273.875V270.573C143.766 273.533 157.541 279.572 162.761 281.259C164.095 281.703 164.211 281.644 164.907 281.259C168.895 278.654 182.974 262.463 185.555 259.991V263.114C177.725 271.122 164.429 285.152 164.182 284.353C162.747 284.264 138.996 274.467 137.749 273.875ZM183.786 249.335C184.307 250.232 184.588 251.253 184.598 252.295C184.594 252.627 184.514 252.953 184.365 253.249C184.217 253.543 184.004 253.8 183.743 253.997C182.525 253.168 180.219 251.629 177.493 249.824C178.987 246.819 182.307 246.775 183.728 249.335H183.786ZM137.386 258.807C143.563 256.942 155.294 245.398 159.238 240.396C160.186 240.666 161.102 241.048 161.964 241.536C160.514 244.288 162.065 247.308 162.616 246.878C162.921 246.642 162.37 246.553 162.283 245.102C162.245 244.043 162.481 242.992 162.964 242.054C164.965 243.119 167.314 244.51 169.301 245.68C168.083 248.447 169.547 251.185 170.055 250.786C170.562 250.386 169.823 250.475 169.736 249.024C169.701 248.073 169.878 247.126 170.258 246.257C172.302 247.485 174.39 248.758 176.304 249.957C176.01 250.694 175.892 251.494 175.962 252.287C176.034 253.08 176.29 253.844 176.71 254.515C176.73 254.54 176.753 254.562 176.78 254.578C176.807 254.593 176.837 254.604 176.867 254.608C176.899 254.611 176.93 254.61 176.961 254.602C176.991 254.593 177.019 254.579 177.044 254.56C177.068 254.54 177.09 254.516 177.104 254.488C177.12 254.461 177.131 254.43 177.135 254.398C177.138 254.367 177.137 254.335 177.128 254.304C177.12 254.273 177.107 254.244 177.087 254.219C176.826 253.631 176.698 252.991 176.71 252.346C176.722 251.701 176.876 251.067 177.16 250.49C180.538 252.591 183.264 254.352 184.105 254.93C183.946 255.078 168.822 268.812 163.675 272.898C160.296 271.994 142.563 263.01 137.386 258.807ZM137.937 267.051C144.506 270.011 159.426 276.878 162.863 277.545C163.457 277.664 163.689 277.707 164.82 276.789C169.649 272.839 185.352 256.069 185.497 256.247C185.504 256.291 185.504 256.336 185.497 256.38V259.34C182.264 261.989 164.284 281.259 163.994 280.341C162.544 280.341 138.981 270.53 137.778 269.981C137.749 269.36 137.879 267.702 137.937 267.051ZM164.342 287.445C162.892 288.29 140.808 279.128 137.85 277.263C137.739 276.318 137.686 275.371 137.691 274.421C144.042 277.618 162.515 285.58 164.211 285.508C166.691 285.373 184.221 265.23 185.468 263.824C185.483 264.58 185.409 265.335 185.251 266.074C185.004 266.562 165.299 286.899 164.342 287.445ZM44.2088 204.018C44.3103 205.601 44.3828 206.978 44.3828 208.265C44.3828 208.461 44.4593 208.65 44.5951 208.788C44.7311 208.927 44.9154 209.005 45.1078 209.005C45.3 209.005 45.4846 208.927 45.6203 208.788C45.7564 208.65 45.8328 208.461 45.8328 208.265C45.8328 206.889 45.7603 205.527 45.6588 203.914C45.6454 203.718 45.556 203.535 45.4105 203.406C45.265 203.276 45.0754 203.212 44.883 203.226C44.6908 203.239 44.5118 203.331 44.3852 203.479C44.2587 203.628 44.1954 203.821 44.2088 204.018ZM265.146 174.344C265.051 174.35 264.959 174.374 264.872 174.416C264.787 174.46 264.711 174.519 264.65 174.593C264.587 174.665 264.54 174.751 264.51 174.842C264.482 174.934 264.471 175.032 264.479 175.128C264.566 176.49 264.653 177.955 264.653 179.376C264.653 179.572 264.729 179.76 264.866 179.898C265.001 180.038 265.185 180.116 265.378 180.116C265.57 180.116 265.755 180.038 265.889 179.898C266.026 179.76 266.103 179.572 266.103 179.376C266.103 177.896 266.016 176.416 265.913 175.024C265.908 174.928 265.884 174.833 265.842 174.747C265.8 174.659 265.742 174.582 265.671 174.519C265.599 174.455 265.515 174.407 265.425 174.377C265.336 174.347 265.241 174.335 265.146 174.344ZM40.4533 200.332C40.6455 200.332 40.8301 200.255 40.9658 200.115C41.1019 199.977 41.1783 199.788 41.1783 199.592C41.1783 199.396 41.1019 199.208 40.9658 199.069C40.8301 198.93 40.6455 198.852 40.4533 198.852C38.6988 198.852 37.2343 198.986 35.7843 198.956C35.5906 198.956 35.4047 199.034 35.2666 199.172C35.1281 199.31 35.0485 199.499 35.0448 199.696C35.0448 199.892 35.1213 200.081 35.2571 200.219C35.3931 200.358 35.5774 200.436 35.7698 200.436C37.2633 200.466 38.9018 200.406 40.4533 200.332ZM260.651 169.963C258.911 169.963 257.446 170.066 255.982 170.081C255.79 170.081 255.605 170.159 255.47 170.298C255.333 170.436 255.257 170.625 255.257 170.821C255.257 171.017 255.333 171.206 255.47 171.344C255.605 171.483 255.79 171.561 255.982 171.561C257.548 171.561 259.172 171.561 260.738 171.443C260.93 171.43 261.11 171.342 261.238 171.195C261.365 171.048 261.43 170.855 261.419 170.658C261.407 170.462 261.32 170.278 261.177 170.148C261.032 170.017 260.843 169.95 260.651 169.963ZM43.8173 191.186C43.9043 192.548 43.9913 194.013 43.9913 195.434C43.995 195.628 44.0725 195.815 44.2078 195.953C44.3428 196.091 44.5252 196.17 44.7163 196.174C44.9085 196.174 45.0931 196.096 45.2288 195.956C45.3649 195.818 45.4413 195.63 45.4413 195.434C45.4413 193.954 45.3543 192.474 45.2673 191.082C45.2539 190.886 45.1645 190.704 45.019 190.574C44.8735 190.445 44.6839 190.381 44.4915 190.394C44.2993 190.408 44.1203 190.499 43.9937 190.647C43.8672 190.796 43.8039 190.99 43.8173 191.186ZM265.71 166.544C265.71 165.064 265.623 163.584 265.523 162.193C265.51 161.997 265.42 161.814 265.275 161.685C265.13 161.555 264.94 161.491 264.748 161.505C264.555 161.518 264.376 161.609 264.249 161.757C264.123 161.907 264.06 162.1 264.073 162.296C264.16 163.658 264.247 165.123 264.247 166.544C264.247 166.74 264.323 166.929 264.46 167.067C264.595 167.206 264.779 167.284 264.972 167.284C265.164 167.284 265.352 167.206 265.489 167.068C265.628 166.93 265.707 166.741 265.71 166.544ZM54.5183 200.14C54.6135 200.136 54.7071 200.113 54.7936 200.072C54.88 200.031 54.9581 199.973 55.0227 199.902C55.0873 199.83 55.1376 199.748 55.1703 199.655C55.2033 199.564 55.2183 199.468 55.2143 199.37C55.1996 199.177 55.1139 198.995 54.9739 198.863C54.8342 198.733 54.6507 198.66 54.4603 198.66C52.7058 198.734 51.2413 198.793 49.7768 198.764C49.5844 198.764 49.4001 198.841 49.2641 198.981C49.1283 199.119 49.0518 199.307 49.0518 199.504C49.0518 199.7 49.1283 199.888 49.2641 200.026C49.4001 200.166 49.5844 200.244 49.7768 200.244C51.3283 200.273 52.9523 200.214 54.5183 200.14ZM274.716 169.77C273.266 169.844 271.655 169.889 270.047 169.889C269.952 169.885 269.857 169.901 269.765 169.936C269.675 169.97 269.596 170.023 269.525 170.09C269.456 170.158 269.401 170.239 269.364 170.329C269.327 170.419 269.306 170.517 269.306 170.614C269.306 170.811 269.383 171.001 269.52 171.143C269.654 171.284 269.839 171.365 270.031 171.369C271.684 171.369 273.018 171.369 274.774 171.25C274.869 171.247 274.961 171.223 275.048 171.183C275.135 171.142 275.214 171.084 275.277 171.012C275.343 170.941 275.393 170.858 275.425 170.766C275.459 170.674 275.473 170.578 275.47 170.481C275.451 170.288 275.364 170.11 275.225 169.979C275.088 169.847 274.906 169.773 274.716 169.77ZM21.1972 156.288C21.3857 156.436 62.2758 150.249 64.0303 149.154C64.1276 149.081 64.2051 148.985 64.2557 148.874C64.3064 148.763 64.3288 148.64 64.3203 148.518C64.3203 146.608 61.8698 128.686 60.6953 124.216C60.5503 123.668 60.4053 123.121 60.0718 122.928C57.8533 121.567 18.7613 129.085 16.4268 130.624C16.3635 130.663 16.3088 130.714 16.2664 130.775C16.2239 130.836 16.1946 130.906 16.1802 130.98C15.6872 132.77 19.9357 155.4 21.1972 156.288ZM17.0648 131.335C19.8488 130.047 55.3303 123.417 59.3903 123.935C60.3763 126.525 63.0153 145.498 63.1893 148.281C61.1738 148.888 21.7483 155.799 21.6033 155.829C21.4583 155.858 21.4438 156.036 21.1393 155.104C19.8633 151.196 16.9923 134.68 17.0648 131.335Z" fill="#B0432E"/>
<path d="M67.2213 150.471C67.3002 150.322 67.3355 150.152 67.3228 149.983C67.3228 147.63 64.0168 121.508 62.8423 119.421C62.7503 119.267 62.6201 119.141 62.4645 119.055C62.3093 118.969 62.1345 118.927 61.9578 118.933C57.1003 118.326 16.1233 126.495 13.4263 128.404C13.0493 128.671 13.1073 129.337 13.1508 130.047C13.3828 133.94 17.5008 159.544 18.9508 159.396C19.1103 159.396 19.0523 159.277 18.6753 160.062C16.4133 164.812 12.1213 180.027 12.2083 183.09C12.2083 184.378 12.4983 186.05 13.7453 185.962C22.6918 184.837 66.5543 177.733 79.1693 175.084C79.6623 174.98 79.9813 174.521 79.9668 173.766C79.8179 172.508 79.4446 171.29 78.8648 170.17C77.0958 166.781 69.7588 153.357 67.2213 150.471ZM19.0378 158.937C17.9068 157.457 13.7453 131.956 14.0643 129.13C17.2543 127.442 57.6803 119.465 61.9143 120.117C63.0743 123.373 66.0758 146.89 66.2643 149.717C61.1313 151.522 25.5918 157.383 19.0378 158.937ZM19.6758 159.381C20.8938 159.07 62.3783 151.981 66.1773 150.96C68.2508 152.928 77.6178 169.933 78.2268 171.384C69.9038 172.864 20.5313 181.285 13.2668 182.41C13.3683 177.925 17.8778 162.252 19.6758 159.381Z" fill="#B0432E"/>
<path d="M25.1295 174.729C26.391 174.537 53.158 171.251 62.8295 168.572C62.8891 168.556 62.9402 168.517 62.9716 168.464C63.0027 168.41 63.0117 168.344 62.9964 168.284C62.9808 168.223 62.9426 168.17 62.8894 168.139C62.8364 168.107 62.7731 168.098 62.7135 168.114C60.814 168.513 37.643 171.666 25.1005 174.27C25.0658 174.264 25.0302 174.266 24.9964 174.275C24.9625 174.285 24.9312 174.302 24.905 174.327C24.8787 174.351 24.8581 174.38 24.8447 174.414C24.8314 174.447 24.8256 174.482 24.8279 174.518C24.8302 174.554 24.8404 174.59 24.8579 174.621C24.8753 174.651 24.8995 174.679 24.9285 174.698C24.9576 174.719 24.9908 174.733 25.0256 174.738C25.0604 174.743 25.0959 174.74 25.1295 174.729ZM44.69 71.7508C44.1482 72.9994 43.6929 74.2854 43.327 75.5988C43.3054 75.8095 43.3623 76.021 43.4865 76.1908C44.951 78.4404 59.9585 95.712 63.8735 98.1392C64.41 98.4796 65.048 98.7164 65.4395 98.228C68.2834 94.616 71.9951 91.8169 76.213 90.1028C79.6461 88.8631 83.2455 88.1691 86.885 88.0456C89.785 87.7792 90.2925 87.4832 91.409 85.5444C92.7261 82.9929 94.4735 80.6983 96.571 78.766C99.2456 76.3791 102.214 74.3591 105.401 72.7572C105.545 72.6743 105.657 72.5446 105.72 72.3891C105.783 72.2335 105.794 72.061 105.749 71.8988C105.259 70.6257 104.611 69.4221 103.821 68.3172C104.343 68.1396 104.923 67.9768 104.923 67.444C104.923 65.964 92.279 47.2864 88.77 43.764C88.4075 43.394 87.8855 42.9056 87.407 42.9352C80.157 43.3496 73.0955 50.3352 69.0065 56.4328C64.323 56.2552 61.2925 55.826 55.9565 58.12C52.1894 59.752 48.7932 62.1607 45.9805 65.1944C45.5455 65.6532 42.5875 68.85 42.544 69.1016C42.5005 69.3532 42.5875 69.3532 44.69 71.7508ZM102.69 71.3364C96.6435 72.3872 92.7865 77.5228 89.9445 83.1024C88.683 85.5888 88.799 85.7072 87.465 85.6776C85.1324 85.5428 82.7923 85.6321 80.476 85.944C78.7769 86.2031 77.1065 86.6296 75.488 87.2168C71.805 88.5488 67.5855 92.8112 65.338 95.9784C65.2903 96.0435 65.2294 96.0976 65.1598 96.1371C65.0902 96.1767 65.0132 96.2007 64.9336 96.2076C64.8542 96.2146 64.7744 96.2044 64.699 96.1778C64.6238 96.1509 64.555 96.1084 64.497 96.0524C59.7845 91.0944 51.447 82.392 47.2565 77.3896C47.0535 77.1676 47.4015 76.842 47.6045 77.0788C50.316 80.0388 57.3195 87.128 64.8305 94.8388C67.368 91.5384 71.283 87.5424 75.1545 86.1512C77.2657 85.3827 79.4626 84.8854 81.694 84.6712C83.7839 84.5092 85.8827 84.5092 87.9725 84.6712C88.828 83.6648 93.062 72.2392 102.661 70.9664C102.689 70.9874 102.712 71.0146 102.728 71.046C102.745 71.0775 102.754 71.1122 102.755 71.1478C102.757 71.1833 102.75 71.2188 102.737 71.2514C102.723 71.2842 102.702 71.313 102.675 71.3364H102.69ZM87.3925 44.134C90.2925 46.206 102.096 64.04 103.632 67.1628C100.966 68.0252 98.3909 69.1608 95.9475 70.552C93.6338 71.736 91.6081 73.4315 90.0178 75.5156C88.4273 77.5997 87.3126 80.0197 86.7545 82.5992C81.549 73.956 74.2845 64.4396 69.456 57.4392C69.746 57.2468 77.895 44.7112 87.3925 44.134ZM56.2755 58.934C61.568 56.7584 64.497 57.2616 68.876 57.454C73.226 65.0316 81.0415 75.7172 86.189 82.7176C81.438 81.5702 76.4387 82.272 72.1675 84.686C69.601 86.166 66.469 89.718 64.5405 91.9232C61.7565 89.644 45.6905 72.18 43.1095 69.22C47.0825 64.632 50.751 61.1836 56.2755 58.8748V58.934ZM29.7405 96.5704C29.3822 96.3137 28.9586 96.1686 28.5209 96.153C28.0833 96.1371 27.6507 96.2512 27.2755 96.4816C27.0024 96.6059 26.7556 96.784 26.55 97.0058C26.344 97.2275 26.1831 97.4882 26.076 97.7735C25.969 98.0584 25.918 98.3625 25.9261 98.6677C25.934 98.9731 26.0009 99.2737 26.1228 99.5527C26.2446 99.8315 26.4192 100.083 26.6362 100.293C26.8534 100.503 27.1089 100.668 27.3883 100.777C27.6678 100.886 27.9654 100.938 28.2647 100.93C28.5636 100.922 28.8584 100.853 29.1315 100.729C29.5681 100.632 29.9654 100.401 30.2704 100.068C30.5757 99.7349 30.7745 99.3151 30.8404 98.8641C30.9066 98.4131 30.8367 97.9522 30.6403 97.5426C30.4439 97.1328 30.1302 96.794 29.7405 96.5704ZM28.7835 99.5304C27.7685 99.856 27.1595 99.5304 26.913 99.0272C26.449 97.9764 27.029 96.3632 28.537 96.8368C29.5955 97.2364 30.451 99.0568 28.7835 99.6044V99.5304ZM103.473 28.8456C103.894 29.7188 105.851 29.3932 106.707 29.112C107.156 28.964 107.446 28.8012 107.49 28.3572C107.62 27.2472 107.765 17.6272 107.272 16.6948C107.221 16.597 107.143 16.5169 107.047 16.4642C106.952 16.4115 106.844 16.3887 106.736 16.3988C105.188 16.3944 103.649 16.6239 102.168 17.0796C101.574 17.4496 102.951 27.8688 103.473 28.8456ZM102.472 17.4348C103.812 17.2392 105.167 17.1748 106.518 17.2424C106.605 18.3376 106.373 27.8244 106.359 27.9724C105.746 28.1966 105.092 28.2775 104.444 28.2092C104.343 27.8688 104.169 26.9512 103.951 25.7968C103.312 23.0385 102.819 20.2471 102.472 17.4348ZM28.334 84.0792C28.4732 84.1521 28.6272 84.1898 28.7835 84.1898C28.9398 84.1898 29.0938 84.1521 29.233 84.0792C29.7932 83.7264 30.2375 83.2111 30.509 82.5992C30.5459 82.5012 30.5573 82.3952 30.542 82.2916C30.5267 82.1877 30.4855 82.0898 30.422 82.0072C29.726 81.1636 22.128 72.18 21.2 72.7424C20.0606 73.4953 18.9796 74.3365 17.9665 75.2584C17.9257 75.2958 17.8929 75.3413 17.8705 75.3921C17.848 75.4433 17.8363 75.4984 17.836 75.5544C17.807 76.324 26.246 83.2208 28.334 84.0792ZM21.374 73.1272C22.4325 73.9116 25.9995 78.4108 29.3055 82.392C29.1634 82.6204 28.9873 82.8252 28.7835 82.9988C25.3076 80.7282 21.9889 78.216 18.851 75.4804C19.6377 74.6373 20.4807 73.851 21.374 73.1272ZM44.1535 40.4784C44.4725 34.736 47.7495 32.072 51.1715 31.3912C50.2 35.032 50.3595 39.768 53.883 40.3748C55.565 40.656 56.3915 39.768 57.6095 38.732C62.815 34.292 58.61 29.852 52.7375 30.1628C54.927 24.0356 59.9875 19.048 66.701 18.8852C66.7624 18.8852 66.8215 18.8603 66.865 18.8159C66.9085 18.7714 66.933 18.7112 66.933 18.6484C66.933 18.5856 66.9085 18.5253 66.865 18.4809C66.8215 18.4365 66.7624 18.4116 66.701 18.4116C59.451 18.2636 53.7525 23.5916 51.505 30.2516C47.6335 30.9324 43.791 33.8924 43.6895 40.3896C43.6837 40.4208 43.684 40.4526 43.6906 40.4835C43.6969 40.5145 43.7093 40.5438 43.7267 40.5702C43.7443 40.5963 43.7665 40.6186 43.7926 40.6358C43.8184 40.653 43.8477 40.6651 43.878 40.6708C43.9086 40.6767 43.9397 40.6762 43.97 40.6697C44.0003 40.6633 44.0291 40.6506 44.0549 40.6329C44.0805 40.6148 44.1024 40.5922 44.1192 40.5656C44.1361 40.5392 44.1477 40.5096 44.1535 40.4784ZM52.404 31.2136C54.5645 31.0656 57.7835 31.7464 58.668 33.7444C59.1755 34.884 58.668 36.29 56.87 37.8292C56.3818 38.3284 55.825 38.7522 55.217 39.0872C53.042 40.0344 50.635 37.2964 52.404 31.2136ZM56.551 240.53C55.15 240.146 53.6884 240.054 52.2516 240.256C50.8148 240.458 49.4323 240.952 48.1853 241.708C46.9383 242.463 45.8519 243.465 44.9903 244.657C44.1285 245.847 43.5087 247.201 43.1675 248.64C42.5234 251.63 43.0689 254.758 44.6842 257.335C46.2995 259.914 48.852 261.732 51.7805 262.39C54.709 263.047 57.7735 262.491 60.2994 260.842C62.8258 259.193 64.6069 256.588 65.251 253.598C65.5262 252.157 65.5191 250.674 65.2299 249.235C64.941 247.796 64.3757 246.43 63.5672 245.215C62.7583 244.001 61.722 242.961 60.5179 242.157C59.3137 241.353 57.9654 240.8 56.551 240.53ZM61.0315 252.592C60.4497 254.96 59.0569 257.038 57.1049 258.449C55.1529 259.861 52.7705 260.514 50.3885 260.288C48.2019 259.416 46.3865 257.784 45.2621 255.681C44.1377 253.577 43.7757 251.137 44.2405 248.788C44.7831 246.362 46.1629 244.216 48.1278 242.744C50.0927 241.271 52.5113 240.569 54.9415 240.767C57.1497 241.698 58.9654 243.394 60.0687 245.557C61.172 247.72 61.4926 250.212 60.9735 252.592H61.0315Z" fill="#B0432E"/>
<path d="M75.8647 244.748C74.6024 244.304 73.2494 244.196 71.9352 244.437C71.3902 243.162 70.7201 241.947 69.9342 240.811C70.8767 239.938 73.4577 237.511 72.8342 236.371C70.6151 233.661 67.9806 231.338 65.0329 229.489C63.8022 228.785 62.4472 228.337 61.0457 228.172C60.1177 228.305 57.9134 231.99 57.4204 232.819C57.1014 232.819 55.9707 232.449 55.8837 232.405C55.8837 231.339 55.5792 227.491 54.6367 227.047C53.5826 226.651 52.4883 226.377 51.3742 226.233C50.3447 226.07 41.0792 227.802 40.3977 229.075C39.9482 229.933 40.9922 233.174 41.2967 234.077C40.5147 234.516 39.7636 235.011 39.0492 235.557C37.5992 236.608 37.9907 236.563 37.7297 236.445C37.4141 236.291 37.0761 236.191 36.7292 236.149C35.5707 235.456 34.2128 235.195 32.8867 235.409C31.5527 235.853 28.4062 243.164 27.8987 245.044C27.7326 245.517 27.6878 246.027 27.7682 246.524C28.1162 247.501 30.4362 248.285 31.4077 248.596C31.1393 250.5 31.1393 252.434 31.4077 254.338C30.1317 254.693 27.4779 255.493 27.6229 256.825C27.7679 258.157 31.1609 266.948 32.5674 267.643C33.338 268.084 34.1901 268.354 35.069 268.438C35.948 268.521 36.8343 268.418 37.6717 268.132C38.143 267.891 38.5986 267.62 39.0347 267.318C39.6147 267.762 40.2237 268.161 40.8472 268.546C40.3977 269.686 39.3972 272.231 39.7162 273.386C39.8757 273.994 40.3542 274.185 41.0212 274.438C42.8627 275.119 52.7807 277.546 54.2887 277.279C54.8542 277.191 55.1587 276.583 55.3327 276.007C55.6548 274.691 55.8444 273.348 55.8979 271.995C56.6427 271.919 57.3832 271.806 58.1167 271.656C58.5646 272.457 59.1375 273.184 59.8132 273.8C60.5527 274.333 61.1762 274.067 62.0172 273.52C62.4232 274.053 63.0322 274.793 63.6847 274.866C65.3232 275.06 72.0947 268.546 72.7907 267.214C73.3707 266.104 71.2537 264.121 70.3112 263.248C71.3306 261.681 72.131 259.978 72.6892 258.186C73.735 258.347 74.7935 258.407 75.8502 258.364C76.3287 258.364 76.8797 258.186 77.0827 257.727C77.9672 255.67 77.7062 247.871 77.0827 245.887C76.9957 245.31 76.3432 244.925 75.8647 244.748ZM76.2127 246.109C76.7057 248.033 76.8649 255.3 76.1399 257.18C74.8863 257.306 73.6214 257.246 72.3844 257.002C72.2526 256.979 72.1168 257.007 72.0042 257.081C71.8914 257.155 71.8099 257.27 71.7757 257.402C71.1983 259.402 70.3017 261.293 69.1219 262.996C69.0381 263.11 69.0001 263.25 69.0164 263.392C69.0325 263.533 69.1019 263.661 69.2092 263.751C70.2265 264.574 71.0907 265.576 71.7612 266.711C71.0362 267.925 65.3667 273.224 63.8007 273.668C63.5687 273.668 62.9307 272.78 62.7712 272.544C62.2355 271.72 61.7514 270.867 61.3212 269.982C61.2584 269.853 61.1506 269.753 61.0193 269.702C60.8877 269.648 60.742 269.648 60.6104 269.702C56.4054 271.314 54.8107 270.367 54.8107 271.432C54.8125 273.028 54.5578 274.613 54.0564 276.125C50.6489 275.746 47.2936 274.981 44.0517 273.846C44.2083 272.264 44.6401 270.724 45.3277 269.301C45.7627 268.309 44.0227 268.591 40.7747 265.216C40.67 265.117 40.5329 265.062 40.3905 265.062C40.2479 265.062 40.1108 265.117 40.0062 265.216C38.5562 266.43 36.6712 267.614 36.2942 267.421C35.5547 267.051 32.1472 259.163 31.9442 257.565C32.9755 256.831 34.1463 256.326 35.3807 256.085C35.5122 256.046 35.6258 255.961 35.7007 255.844C35.7751 255.727 35.8059 255.586 35.7867 255.448C35.4313 253.353 35.4313 251.209 35.7867 249.114C35.8088 248.984 35.7822 248.852 35.7123 248.743C35.6422 248.633 35.5341 248.554 35.4097 248.522C34.3164 248.23 33.2642 247.797 32.2777 247.234C31.9587 246.997 31.9877 247.012 32.0167 246.761C32.9552 243.306 34.4603 240.038 36.4682 237.096C37.2512 236.874 39.3682 238.458 40.0932 239.02C40.1688 239.096 40.2703 239.137 40.3758 239.137C40.4815 239.137 40.583 239.096 40.6587 239.02C41.3249 238.315 42.0422 237.662 42.8047 237.067C45.0087 235.365 45.6032 235.587 45.4147 234.995C44.7479 233.51 44.3736 231.905 44.3127 230.273C44.5373 230.082 44.7925 229.933 45.0667 229.829C46.4204 229.283 47.8111 228.838 49.2282 228.497C50.9458 228.009 52.7111 227.715 54.4917 227.624C54.7962 227.757 55.0717 229.104 55.1442 229.519C55.6807 232.479 55.3182 233.085 55.7387 233.13C59.8712 233.544 60.7122 234.713 61.0022 234.195C61.8063 232.76 62.7435 231.407 63.8007 230.155C64.1052 229.844 64.0907 229.696 65.0042 230.229C67.7333 232.049 70.1775 234.279 72.2542 236.845C72.4717 237.229 70.5867 239.272 69.2092 240.471C68.7307 240.9 69.4122 241.092 70.6592 243.519C71.9062 245.947 71.6159 246.627 72.2829 246.479C73.5689 246.165 74.8921 246.04 76.2127 246.109ZM277.457 122.441C274.417 121.173 271.232 120.313 267.976 119.88C265.598 119.495 262.799 119.111 260.435 118.8C262.712 115.514 269.453 107.197 270.584 105.169C270.903 104.621 270.296 103.852 269.846 103.393C267.323 100.64 262.451 99.6042 258.71 99.0122C256.564 98.657 247.603 97.5322 246.08 98.2722C244.253 99.1602 230.739 119.88 230.333 123.033C230.333 123.565 230.507 123.773 231.015 123.965C233.146 124.764 242.76 126.007 244.906 126.525C242.006 131.705 229.115 149.214 227.854 151.685C227.549 152.307 227.738 152.677 228.1 152.795C229.405 153.324 230.748 153.75 232.117 154.068C232.639 154.231 233.784 153.506 235.452 152.47C242.934 147.882 275.037 126.244 277.502 123.447C277.57 123.382 277.623 123.302 277.66 123.213C277.694 123.124 277.71 123.029 277.705 122.934C277.702 122.838 277.676 122.745 277.633 122.66C277.591 122.575 277.531 122.5 277.457 122.441ZM246.298 140.201C233.973 148.503 229.811 150.931 229.666 151.034C231.653 147.941 243.992 130.684 246.109 126.555C246.145 126.475 246.165 126.388 246.165 126.3C246.165 126.212 246.144 126.125 246.107 126.046C246.069 125.965 246.015 125.896 245.947 125.841C245.881 125.785 245.802 125.746 245.718 125.726C244.268 125.193 233.712 124.039 231.218 123.136C231.537 120.383 244.703 99.5746 246.298 98.7458C247.893 97.917 263.364 99.7966 266.265 101.913C264.742 104.947 256.332 115.573 254.969 118.045C254.693 118.548 254.606 119.037 255.143 119.17C255.679 119.303 269.308 120.931 272.282 121.923C268.657 125.016 250.358 137.418 246.298 140.141V140.201ZM153.28 49.7134C153.28 49.8466 153.367 50.0094 153.585 50.8678C153.641 51.054 153.767 51.2103 153.935 51.3042C154.102 51.3979 154.299 51.4218 154.484 51.371C154.668 51.3161 154.824 51.1885 154.916 51.0163C155.009 50.8444 155.031 50.6417 154.977 50.4534C154.832 49.8762 154.701 49.3878 154.614 49.151C154.53 48.9884 154.389 48.8639 154.219 48.8017C154.05 48.7393 153.864 48.7436 153.697 48.8138C153.53 48.884 153.395 49.0151 153.319 49.1814C153.241 49.3477 153.227 49.5374 153.28 49.7134Z" fill="#B0432E"/>
</svg>
